#tb 0: 1/44100
#media_type 0: audio
#codec_id 0: pcm_s16le
#sample_rate 0: 44100
#channel_layout_name 0: stereo
0,          0,          0,     4096,    16384, 0x95a4b608
0,       4096,       4096,     4096,    16384, 0x0ef9e233
0,       8192,       8192,     4096,    16384, 0xf194e091
0,      12288,      12288,     4096,    16384, 0x1a5bd528
0,      16384,      16384,     4096,    16384, 0xd6ccd932
0,      20480,      20480,     4096,    16384, 0x5dc0e180
0,      24576,      24576,     4096,    16384, 0xc1b5df29
0,      28672,      28672,     4096,    16384, 0x7598ee8a
0,      32768,      32768,     4096,    16384, 0xa876ea81
0,      36864,      36864,     4096,    16384, 0x0ef9e233
0,      40960,      40960,     4096,    16384, 0x5634ca19
0,      45056,      45056,     4096,    16384, 0x4e2eb6bd
0,      49152,      49152,     4096,    16384, 0xfccded93
0,      53248,      53248,     4096,    16384, 0xd57bd9bc
0,      57344,      57344,     4096,    16384, 0xafea471a
0,      61440,      61440,     4096,    16384, 0x21d4be7b
0,      65536,      65536,     4096,    16384, 0x6ce6d871
0,      69632,      69632,     4096,    16384, 0xb11be5c7
0,      73728,      73728,     4096,    16384, 0x894c06e2
0,      77824,      77824,     4096,    16384, 0x4f24ff80
0,      81920,      81920,     4096,    16384, 0x29fb49f1
0,      86016,      86016,     4096,    16384, 0x7d7ee4fb
0,      90112,      90112,     4096,    16384, 0x4979c183
0,      94208,      94208,     4096,    16384, 0x3161013d
0,      98304,      98304,     4096,    16384, 0xe1db053d
0,     102400,     102400,     4096,    16384, 0x8acc2abb
0,     106496,     106496,     4096,    16384, 0x2437ea91
0,     110592,     110592,     4096,    16384, 0x96d1cbc0
0,     114688,     114688,     4096,    16384, 0x63d5b725
0,     118784,     118784,     4096,    16384, 0x4ff2079a
0,     122880,     122880,     4096,    16384, 0x32289b33
0,     126976,     126976,     4096,    16384, 0xc876d749
0,     131072,     131072,     4096,    16384, 0x264ef6f3
0,     135168,     135168,     4096,    16384, 0x3488efbd
0,     139264,     139264,     4096,    16384, 0xa7ecda5e
0,     143360,     143360,     4096,    16384, 0x1524c987
0,     147456,     147456,     4096,    16384, 0x3fb7ee63
0,     151552,     151552,     4096,    16384, 0xdcc2fa4c
0,     155648,     155648,     4096,    16384, 0xe908c075
0,     159744,     159744,     4096,    16384, 0x61acc5e0
0,     163840,     163840,     4096,    16384, 0xc22ffed2
0,     167936,     167936,     4096,    16384, 0xf529d0d6
0,     172032,     172032,     4096,    16384, 0x6120d025
0,     176128,     176128,     4096,    16384, 0xf3dde80b
0,     180224,     180224,     4096,    16384, 0x2135bc77
0,     184320,     184320,     4096,    16384, 0xc95172a6
0,     188416,     188416,     4096,    16384, 0x1f07fd14
0,     192512,     192512,     4096,    16384, 0x901bd90e
0,     196608,     196608,     4096,    16384, 0xed6a074d
0,     200704,     200704,     4096,    16384, 0xe27685d9
0,     204800,     204800,     4096,    16384, 0x5a7ec6a0
0,     208896,     208896,     4096,    16384, 0xde02cac3
0,     212992,     212992,     4096,    16384, 0x2135bc77
0,     217088,     217088,     4096,    16384, 0xc95172a6
0,     221184,     221184,     4096,    16384, 0x1f07fd14
0,     225280,     225280,     4096,    16384, 0x901bd90e
0,     229376,     229376,     4096,    16384, 0xed6a074d
0,     233472,     233472,     4096,    16384, 0xe27685d9
0,     237568,     237568,     4096,    16384, 0x5a7ec6a0
0,     241664,     241664,     4096,    16384, 0xde02cac3
0,     245760,     245760,     4096,    16384, 0x2135bc77
0,     249856,     249856,     4096,    16384, 0xc95172a6
0,     253952,     253952,     4096,    16384, 0x1f07fd14
0,     258048,     258048,     4096,    16384, 0x901bd90e
0,     262144,     262144,     2456,     9824, 0x969249b6
0,     264600,     264600,     1852,     7408, 0x77074171
